<?xml version="1.0" encoding="UTF-8"?>
<svg id="Layer_1" data-name="Layer 1" xmlns="http://www.w3.org/2000/svg" viewBox="0 0 1154 1480">
  <defs>
    <style>
      .cls-1 {
        fill: #ff0003;
      }

      .cls-1, .cls-2 {
        stroke-width: 0px;
      }

      .cls-3 {
        stroke-width: 36px;
      }

      .cls-3, .cls-4, .cls-5, .cls-6 {
        fill: none;
        stroke: #fff;
        stroke-miterlimit: 10;
      }

      .cls-2 {
        fill: #fff;
      }

      .cls-4 {
        stroke-width: 34px;
      }

      .cls-5 {
        stroke-width: 32px;
      }

      .cls-6 {
        stroke-width: 33px;
      }
    </style>
  </defs>
  <path class="cls-2" d="m577,326.75l83.36,48.13v96.25l-83.36,48.13-83.36-48.13v-96.25l83.36-48.13m0-72.75l-146.36,84.5v169l146.36,84.5,146.36-84.5v-169l-146.36-84.5h0Z"/>
  <polyline class="cls-6" points="746.83 423 854.32 423 949.16 328.16 1061.66 328.16"/>
  <polyline class="cls-6" points="411.66 423 304.17 423 209.33 328.16 96.83 328.16"/>
  <circle class="cls-6" cx="49.5" cy="328.5" r="33"/>
  <circle class="cls-6" cx="335.5" cy="98.5" r="33"/>
  <circle class="cls-6" cx="577.5" cy="57.5" r="33"/>
  <circle class="cls-6" cx="817.5" cy="49.5" r="33"/>
  <circle class="cls-6" cx="973.5" cy="701.5" r="33"/>
  <circle class="cls-3" cx="127.5" cy="702.5" r="38"/>
  <circle class="cls-6" cx="1104.5" cy="323.5" r="33"/>
  <line class="cls-5" x1="577" y1="622" x2="577" y2="1475"/>
  <line class="cls-3" x1="666" y1="861" x2="666" y2="1480"/>
  <line class="cls-3" x1="486" y1="869" x2="486" y2="1471"/>
  <polyline class="cls-3" points="577 949.66 833.38 693.28 942 693.28"/>
  <polyline class="cls-4" points="577 958.38 320.62 702 166 702"/>
  <polyline class="cls-3" points="426 306 336.47 216.47 336.47 131.5"/>
  <polyline class="cls-3" points="717 315 815 216.97 818 83"/>
  <line class="cls-3" x1="578" y1="90" x2="578" y2="229"/>
  <g>
    <path class="cls-1" d="m520.15,411.96l1.2-6.75-3.09-6.52c2.44-.72,4.98-1.73,7.63-3,2.65-1.28,5.14-2.95,7.46-5l2.23,4.35,1.94,3.83,3.89,6.98,3.89,7.03,3.32,6.29,2.69,5.15,1.89,3.55,2.69,5.15c0-.61,0-1.32.03-2.12.02-.8.05-1.7.09-2.69.11-1.98.17-3.34.17-4.06l-.17-8.98c-.04-.88-.11-1.93-.2-3.17-.1-1.24-.18-2.66-.26-4.26l-.29-6.75.17-6.35,2.97-.69,2.86-.63c.34-.08.78-.2,1.32-.37.53-.17,1.18-.37,1.94-.6,1.11-.34,2.21-.72,3.32-1.14,1.11-.42,2.21-.9,3.32-1.43v.89c0,.36,0,.72-.03,1.08-.02.36-.03.72-.03,1.06v.86l-.06,3.43-.06,3.6c0,.19,0,.45-.03.77-.02.33-.03.68-.03,1.06s0,.74-.03,1.09c-.02.34-.03.63-.03.86l.06,6.69.06,7.26c0,.84-.06,2.29-.17,4.35-.04.99-.07,1.91-.09,2.74-.02.84-.03,1.58-.03,2.23l-.17,9.49c0,.99-.06,2.54-.17,4.63-.11,2.14-.17,3.77-.17,4.92,0,.61-.04,1.28-.11,2-.08.72-.19,1.52-.34,2.4l-.63,3.77c-1.83,2.14-3.37,3.64-4.63,4.52-1.6,1.07-3.05,1.98-4.35,2.74-1.3.76-2.44,1.35-3.43,1.77l-3.95-6.23c-.42-.65-.84-1.27-1.26-1.86-.42-.59-.84-1.15-1.26-1.69l-2.74-3.77-2.17-3.26-2.34-3.89-2.69-5.03-3.32-6.52-2.23-4.35-.57,11.55c-.08,1.41-.12,2.74-.14,4-.02,1.26-.11,2.44-.26,3.55-.11,1.03-.28,2.35-.49,3.98-.21,1.62-.45,3.4-.71,5.35l-7.78,3.2-4,1.66-3.77,1.49.74-5.03.69-6.23c.34-3.09.51-7.01.51-11.78v-6.46c0-2.97.07-5.72.2-8.23.13-2.52.29-4.84.49-6.98.04-.72.09-1.54.14-2.46s.18-1.92.37-3.03Z"/>
    <path class="cls-1" d="m589.54,409.62l-13.67,2.46c2.52-2.25,5.22-4.78,8.12-7.61,1.22-1.18,2.37-2.32,3.43-3.43,1.07-1.11,2.06-2.19,2.97-3.26,1.53-.31,3.08-.57,4.66-.8s3.23-.44,4.95-.63c1.68-.19,3.31-.34,4.89-.46s3.52-.17,5.81-.17h1.66c10.26,0,18.64,2.23,25.16,6.69,3.32,2.29,5.83,5.33,7.52,9.12,1.7,3.79,2.54,8.4,2.54,13.81s-1.12,10.69-3.34,15.38c-2.23,4.69-5.4,8.77-9.52,12.24s-8.84,6.14-14.15,8.01c-5.32,1.87-10.87,2.8-16.67,2.8-4.72,0-8.87-.14-12.44-.43-3.56-.28-6.74-.73-9.52-1.34.76-1.45,1.45-2.78,2.06-4,.61-1.22,1.14-2.36,1.6-3.43.38-.84.73-1.78,1.06-2.83.33-1.05.64-2.18.95-3.4l.74-6.18.46-4.12c.19-1.64.32-3.15.37-4.52.06-1.37.09-2.65.09-3.83,0-.84.02-1.84.06-3,.04-1.16.09-2.49.17-3.98.08-1.52.13-2.83.17-3.92.04-1.09.06-1.95.06-2.6,0-.19,0-.51-.03-.97s-.05-1.05-.09-1.77c-.04-.72-.06-1.41-.06-2.06v-1.77Zm37.86,17.61c-.04-2.48-.44-4.83-1.2-7.06-.76-2.23-1.89-4.18-3.37-5.86s-3.34-3-5.55-3.97c-2.21-.97-4.74-1.46-7.6-1.46h-1.14l-2.4,41.86h1.31c3.01,0,5.76-.56,8.23-1.69,2.48-1.12,4.59-2.71,6.32-4.74,1.74-2.04,3.08-4.51,4.03-7.41.95-2.9,1.41-6.12,1.37-9.66Z"/>
  </g>
</svg>