<svg id="svg" version="1.1" viewBox="0 0 300 300" width="300" height="300" xmlns="http://www.w3.org/2000/svg"><svg xmlns="http://www.w3.org/2000/svg"><defs><clipPath id="clip-1"><rect x="0" y="0" transform="scale(0.14648,0.14648)" width="2048" height="2048" fill="none"/></clipPath><linearGradient x1="156.20361" y1="157.64063" x2="165.47461" y2="130.58994" gradientUnits="userSpaceOnUse" id="color-1"><stop offset="0" stop-color="#fee4e2" stop-opacity="0.3098"/><stop offset="1" stop-color="#fef8f7" stop-opacity="0.33333"/></linearGradient><linearGradient x1="130.44463" y1="130.36392" x2="139.45503" y2="142.5104" gradientUnits="userSpaceOnUse" id="color-2"><stop offset="0" stop-color="#fefdfc" stop-opacity="0.30196"/><stop offset="1" stop-color="#feefee" stop-opacity="0.36863"/></linearGradient><linearGradient x1="137.85337" y1="171.52588" x2="138.78472" y2="169.81641" gradientUnits="userSpaceOnUse" id="color-3"><stop offset="0" stop-color="#fef1ef" stop-opacity="0.2902"/><stop offset="1" stop-color="#feeeec" stop-opacity="0.32549"/></linearGradient><linearGradient x1="124.41519" y1="157.72559" x2="129.60146" y2="156.2124" gradientUnits="userSpaceOnUse" id="color-4"><stop offset="0" stop-color="#fef8f7" stop-opacity="0.26667"/><stop offset="1" stop-color="#feebea" stop-opacity="0.36863"/></linearGradient><linearGradient x1="168.40576" y1="264.6958" x2="146.33379" y2="259.83252" gradientUnits="userSpaceOnUse" id="color-5"><stop offset="0" stop-color="#ffffff" stop-opacity="0.05098"/><stop offset="1" stop-color="#ffffff" stop-opacity="0.2902"/></linearGradient><linearGradient x1="128.41421" y1="266.39209" x2="155.75537" y2="257.61182" gradientUnits="userSpaceOnUse" id="color-6"><stop offset="0" stop-color="#ffffff" stop-opacity="0.08235"/><stop offset="1" stop-color="#ffffff" stop-opacity="0.28628"/></linearGradient></defs><g clip-path="url(#clip-1)" fill="none" fill-rule="nonzero" stroke="none" stroke-width="1" stroke-linecap="butt" stroke-linejoin="miter" stroke-miterlimit="10" stroke-dasharray="" stroke-dashoffset="0" font-family="none" font-weight="none" font-size="none" text-anchor="none" style="mix-blend-mode: normal"><path d="M0,0h300v300h-134.67773c-0.14209,-5.26318 -0.03662,-10.55713 -0.03662,-15.82324v-29.06543l0.00439,-23.12549c-0.00146,-4.5498 -0.12158,-9.1377 0.07617,-13.68164c2.69092,-2.98242 5.76416,-5.75391 8.61621,-8.59424c5.0083,-4.98779 9.9668,-10.03857 15.05127,-14.94873c4.07959,-0.14795 8.19873,-0.03662 12.28271,-0.03516c0.75293,1.48828 1.5542,2.72461 3.03662,3.60938c1.54834,0.92285 3.5083,1.14258 5.23535,0.64893c1.79443,-0.51709 3.29736,-1.74609 4.16162,-3.3999c0.82324,-1.55713 0.9917,-3.37939 0.46582,-5.05957c-0.54932,-1.74902 -1.8999,-3.26074 -3.5376,-4.06787c-1.68896,-0.8335 -3.52734,-0.89209 -5.29102,-0.25342c-2.17236,0.78516 -3.30029,2.49316 -4.24072,4.48096c-4.64502,0.00146 -9.62988,0.271 -14.23682,-0.07471c-1.04443,1.6377 -2.62646,2.98828 -3.99756,4.35645l-5.65283,5.62939c-5.62354,5.58984 -11.15332,11.3833 -16.97021,16.76221c-0.28711,0.02637 -0.60059,0.26221 -0.80127,0.46875c-1.96143,2.02295 -4.01807,3.95215 -6.00439,5.95166l-0.19336,-0.02344l0.21094,0.00586l-0.36328,0.25049c1.0957,-1.74316 0.55078,-0.84229 0.27393,-2.48291c-0.04834,-0.2915 -0.11572,-0.50098 -0.25195,-0.76758l-0.271,0.22266l-0.28125,-0.32812l-0.0498,0.92725c-0.32227,-5.57666 -0.0249,-11.26025 -0.08936,-16.85449c0.15088,-6.32666 -0.01465,-12.67383 0.01758,-19.00342c0.00439,-1.08545 0.32959,-4.24219 0.10986,-5.09033c-0.03809,-0.14648 -0.15088,-0.26367 -0.22705,-0.39404l-0.37061,0.03516l-0.07764,0.22119c-0.05273,0.00586 -0.104,0.01172 -0.15527,0.01611c-1.41064,0.14063 -2.84033,-0.07178 -4.24219,0.11133c-0.18311,0.2417 -0.15088,0.11133 -0.1333,0.37646l-0.01318,0.19336c-0.17725,2.94287 -0.03662,5.96338 -0.03516,8.91357c0.00586,7.8252 0.2124,15.7251 -0.06592,23.54004c-0.05859,-2.80957 -0.1084,-5.61621 -0.28857,-8.42139c-0.19775,1.52197 -0.05566,3.16699 -0.06445,4.70508c-0.01758,2.63525 -0.08936,5.2749 -0.07617,7.90869c0.00586,0.87744 0.22852,1.75049 0.13184,2.625l-0.16406,0.07764c-0.00439,-0.35303 0.07617,-0.8584 -0.11719,-1.14844c-0.34116,0.4585 -0.48501,0.9917 -0.99243,1.25684c-0.65156,0.0293 -1.0166,-0.58154 -1.63301,-0.51416l-0.07427,-0.26221c-0.12217,-0.00439 -0.25767,0.04248 -0.3665,-0.01318c-0.61992,-0.31787 -5.30771,-5.31152 -6.23379,-6.30615c-0.18618,-0.20068 -0.35391,-0.40137 -0.52192,-0.6167c-0.34614,-0.44238 -0.93765,-1.02539 -1.45342,-1.229c0.67822,1.15576 4.69219,4.70361 4.69556,5.48145c-9.09507,-8.71875 -17.78818,-17.85937 -26.83887,-26.62207c-7.31001,-0.14941 -14.64419,-0.03369 -21.95684,-0.03076c-0.73228,-1.95996 -1.91396,-3.51709 -3.84272,-4.43994c-1.84761,-0.86426 -3.96562,-0.94922 -5.87622,-0.23437c-1.87178,0.71484 -3.37368,2.15918 -4.16191,4.00049c-0.81196,1.91309 -0.71572,4.00635 0.08936,5.89893c0.73975,1.73877 2.20737,3.09229 3.94731,3.80566c1.83794,0.75 3.90044,0.73096 5.72417,-0.05273c2.06792,-0.90234 3.36108,-2.54736 4.13218,-4.60986l0.07397,-0.20215c6.69478,-0.00439 13.46396,-0.21387 20.15039,0.02051c4.85698,4.62891 9.54404,9.46729 14.29644,14.20605c2.80693,2.79785 5.94141,5.54443 8.50327,8.55322l-0.00483,54.39697c0.00264,9.36768 -0.10371,18.75146 0.01626,28.11914h-134.36895zM149.62793,137.677c-4.12251,2.41245 -8.25908,4.80161 -12.40913,7.16719l-0.02637,14.53374c1.7395,1.03857 11.58296,7.04297 12.80024,7.21143c4.07813,-2.50635 8.52832,-4.6084 12.40723,-7.41064c-0.27686,-4.70654 -0.09375,-9.55811 -0.05127,-14.27622c-1.78564,-1.07842 -11.62646,-7.07871 -12.7207,-7.22549zM228.00439,139.7792c0.93018,-0.24346 1.65381,-0.97075 1.89404,-1.90078c0.24023,-0.93003 -0.04248,-1.91719 -0.73828,-2.57959c-0.69434,-0.6624 -1.69482,-0.89634 -2.61182,-0.61143c-1.37549,0.42715 -2.15625,1.87397 -1.76074,3.25811c0.39551,1.38398 1.8252,2.19844 3.2168,1.83369zM73.31733,140.06279c0.94233,-0.22061 1.68838,-0.93926 1.94414,-1.87266c0.25562,-0.93354 -0.02021,-1.93198 -0.71865,-2.60186c-0.69844,-0.67002 -1.70757,-0.90396 -2.62954,-0.60967c-1.35,0.43096 -2.11875,1.85098 -1.74155,3.21694c0.37734,1.36597 1.76587,2.19023 3.14561,1.86724zM185.52539,99.9854c0.97266,-0.12217 1.80176,-0.76523 2.16064,-1.67725c0.36035,-0.91201 0.19482,-1.94751 -0.43359,-2.70103c-0.62695,-0.75337 -1.61572,-1.10449 -2.57666,-0.91582c-1.41943,0.27817 -2.36279,1.63052 -2.13281,3.05786c0.22852,1.42734 1.54834,2.41641 2.98242,2.23623zM115.35366,107.02954c1.39336,-0.36519 2.24004,-1.77598 1.90679,-3.17725c-0.33325,-1.40127 -1.72441,-2.28003 -3.13301,-1.97886c-0.94014,0.20098 -1.69775,0.89531 -1.97974,1.8145c-0.28213,0.91904 -0.04438,1.9188 0.62124,2.6127c0.66562,0.69375 1.65469,0.97266 2.58472,0.72891zM150.65918,101.07363c1.39453,-0.41455 2.18994,-1.87837 1.78125,-3.27393c-0.40869,-1.39556 -1.86914,-2.19756 -3.2666,-1.7937c-1.40479,0.40605 -2.21191,1.87646 -1.80176,3.27979c0.41162,1.40317 1.88525,2.20488 3.28711,1.78784zM170.65137,139.52139c-0.01904,4.1335 -0.18311,8.34434 0.01318,12.46934c-0.08789,3.88184 -0.12891,7.85596 0,11.73779c-2.37305,1.35352 -20.67187,12.15527 -21.20361,11.99268c-0.33105,-0.10107 -0.59912,-0.28125 -0.88916,-0.46289c-1.14258,-0.9375 -18.80156,-10.96729 -19.34063,-11.0332c-0.22969,-0.2168 -0.41191,-0.39551 -0.47886,-0.71631c-0.45146,-2.16064 -0.00513,-8.87256 -0.10737,-11.55615c0.1957,-4.09863 0.09697,-8.34053 0.01787,-12.44663c6.81416,-3.65186 13.46265,-7.72588 20.1624,-11.59248c0.2959,-0.17842 0.60791,-0.49175 0.96973,-0.36152c1.63037,0.58579 4.24219,2.39766 5.81982,3.3145c4.98633,2.89819 9.94922,5.94375 15.03662,8.65488zM177.3252,154.40186c1.69629,0.01904 3.39404,0.01611 5.09033,-0.00732c2.95459,0.02637 5.90771,-0.09668 8.85059,-0.36621c-1.97314,-0.40869 -7.229,-0.10107 -9.58008,-0.08203c-2.15039,-0.09082 -4.66846,-0.2373 -6.78662,0.10693c-0.44531,-0.84229 -0.1333,-3.79248 -0.26367,-4.96436l9.49072,0.03662c1.6377,0.00732 3.39844,0.13623 5.01855,-0.09082c-2.69971,-0.35303 -7.4502,-0.11719 -10.35791,-0.1333c1.20264,-0.11426 2.40674,-0.20947 3.6123,-0.28564c-1.92627,-0.4043 -3.95215,0.0835 -5.89453,-0.03223c-0.50391,-0.0293 -0.85254,-0.19775 -1.16748,-0.60645c-0.15088,-0.19336 -0.25928,-0.47754 -0.30762,-0.71777c-0.11133,-0.56982 -0.03369,-1.17158 -0.12598,-1.74829c-0.2915,-1.85361 -0.89502,-3.6334 -1.0752,-5.51792c-0.0791,-0.82559 -0.02051,-1.70625 0.0835,-2.52788c0.07324,-0.57671 0.13623,-1.09585 0.62549,-1.4647c1.99072,-1.49897 3.56836,-3.62563 5.42578,-5.29556l-0.01025,-0.13989c-0.96973,0.30747 -1.42529,1.70112 -2.50195,1.93301c-1.24951,0.79585 -3.36621,3.29019 -4.53809,4.45518c-1.23633,-1.13599 -2.42139,-2.32588 -3.55371,-3.56602c1.35791,-1.00386 3.07031,-2.57959 4.07813,-3.94746l-0.20801,-0.01128c-1.18799,0.81094 -2.28662,2.21104 -3.32959,3.2228c-0.25781,-0.21621 -0.19043,-0.22324 -0.56396,-0.23467c-0.30322,0.32622 -0.23145,0.43359 -0.23145,0.86616c-0.95068,0.01582 -7.06934,-3.38115 -8.58105,-4.0166c-1.27734,-0.53774 -2.4917,-0.88403 -3.82617,-1.22798c-0.23877,-0.30483 -0.42187,-0.6 -0.79687,-0.74282c-0.19043,0.20962 -0.32373,0.28564 -0.5874,0.38804c-0.05273,-0.0356 -0.10693,-0.07222 -0.16113,-0.10693c-0.07178,-0.04629 -0.14648,-0.08936 -0.21826,-0.13594c-0.74561,-0.48296 -1.93652,-0.22852 -2.80664,-0.35684c-0.33838,-0.04995 -0.56689,-0.45132 -0.76172,-0.70254l-0.11133,-0.14736l-0.16406,0.14766l-0.05859,0.25737c-0.57568,-0.07852 -1.26123,-0.29443 -1.80762,-0.05479c-0.25342,0.45425 -0.48193,0.71646 -0.88037,1.05161l-0.12891,0.10532c-0.04395,0.00645 -0.31055,0.04395 -0.34863,0.05361c-0.0293,0.00747 -0.05566,0.02505 -0.0835,0.0375c0.22119,-0.21738 0.26514,-0.18252 0.2959,-0.51006l-0.36035,-0.31538c-3.61494,0.17065 -7.48696,1.425 -10.73584,3.03765c-1.4458,0.71763 -2.85425,1.58848 -4.34634,2.20532c-1.12119,-0.10605 -2.97773,-0.47212 -3.88242,-1.17173c-0.04761,-0.03691 -0.09316,-0.07646 -0.14004,-0.1144c-2.21558,-1.78667 -4.91089,-5.47075 -6.98687,-6.85195c-0.05977,-0.0397 -0.1207,-0.07749 -0.18105,-0.11616c-0.84844,-1.40024 -3.53452,-3.08101 -3.88887,-4.52109c-0.24976,-1.01528 -0.09668,-2.42856 -0.16948,-3.50273l-0.0917,1.32393c-0.07734,-1.05161 0.08672,-2.27227 -0.16875,-3.28828c-0.02358,-0.09331 -0.05039,-0.18574 -0.07544,-0.27861c-0.04321,2.20869 -0.05186,4.41797 -0.02593,6.62695c2.81484,2.94536 5.74102,6.01685 8.76167,8.74775c1.21318,1.48857 2.75405,2.82773 4.12178,4.18184c-1.07344,1.09028 -2.20972,2.15757 -3.19072,3.33179c-1.02275,-1.25303 -5.77456,-6.30146 -6.94819,-7.0355c-0.88901,-0.15688 -2.20107,-2.26494 -2.89731,-2.04653l0.03091,-0.16245l-0.18647,-0.06211l0.03369,0.07749l0.0791,-0.05112l-0.01406,0.13579l0.1541,-0.05552l0.05479,0.03398l-0.03677,0.21094c1.1001,1.03022 7.55596,6.91421 7.86489,7.75503c-0.05933,0.3063 -0.27158,0.96299 -0.24229,1.25127c0.08687,0.85664 1.3563,1.70874 1.39409,2.5853c0.10532,2.43691 -1.36201,5.28853 -1.44375,7.94575c-0.20566,0.29004 -0.4062,0.47314 -0.67661,0.69873l-0.05098,0.3208l0.3082,0.25635c-1.61279,0.36914 -5.08711,-0.46143 -7.01748,-0.14355c1.33081,0.34863 2.85264,0.34131 4.22695,0.43359c-3.20112,0.01172 -6.59121,-0.20947 -9.76318,0.0791c2.09224,0.21533 13.58086,-0.20068 14.34331,0.22119l0.12627,0.63281c-0.33428,1.37402 -0.1541,3.01172 -0.09888,4.41943l-11.00171,-0.03516c-1.71519,0 -3.79717,-0.19629 -5.47061,0.13916c0.09272,0.01465 0.18516,0.03076 0.27788,0.04395c2.12681,0.30322 4.81113,0.04541 6.99785,0.03955l-3.45923,0.18018c2.302,0.09082 4.60679,0.07031 6.91025,0.07031c0.91611,0.00146 2.12227,-0.15234 2.99941,0.05127c0.89077,0.20654 1.83779,0.82324 2.70747,1.16602c-0.0085,0.0835 -0.02769,0.16846 -0.02563,0.25342c0.01304,0.54199 0.52441,1.1499 0.7106,1.66553c0.52061,1.43848 0.75264,2.99121 1.33037,4.40186l0.00103,-0.19336c0.30396,0.75146 0.35024,1.42676 0.57041,2.17383c0.24097,0.24316 0.4626,0.46289 0.74253,0.66357c0.77637,0.55664 1.98442,2.23828 2.98799,3.07764c2.82671,2.36426 10.94077,7.31104 14.43369,7.56445c0.49072,0.03516 0.83057,0.10254 1.28613,0.28711c0.2124,0.08643 0.40576,0.09521 0.62842,0.12305c0.01611,0.00146 0.03076,0.00879 0.04541,0.01318l0.3457,0.35303c1.31982,0.50684 3.33105,-1.46191 4.55859,-1.95703c0.16992,0.27393 0.06738,0.17578 0.27979,0.3208c0.24756,-0.14209 0.50098,-0.27686 0.74854,-0.41895c0.65771,-0.375 1.24658,-0.03809 1.92334,-0.18311c0.7749,-0.16406 1.7168,-0.75 2.43311,-1.10449c4.29199,-2.12988 7.24365,-4.21436 10.64795,-7.61865c0.50684,-0.50684 1.07666,-0.78955 1.43701,-1.43848l0.03662,-0.54199c0.35449,-0.31201 0.57275,-0.56982 0.76465,-1.00049c0.5083,-1.14258 1.60693,-4.31982 1.89258,-5.53418c0.07324,-0.30908 0.03076,-0.54346 -0.09229,-0.82617c-0.03369,-0.07617 -0.07031,-0.15234 -0.10547,-0.22705c1.90723,-1.36963 1.47949,-1.08838 3.82471,-1.22461zM152.92969,122.69238c0.01318,-0.95728 -0.08936,-1.90781 -0.07764,-2.86538c0.03955,-3.06079 0.28711,-6.26294 0.04102,-9.31128c-0.24609,0.72876 -0.24023,1.64546 -0.31641,2.41362c-0.56689,-2.5541 0.27539,-5.46284 -0.19189,-8.05327c-0.25342,2.38931 -0.07471,4.95146 -0.06885,7.36362c0.00879,3.59941 -0.07764,7.22944 0.05273,10.8252c-1.06641,-0.00044 -3.82471,0.32798 -4.71387,-0.18003l-0.11719,-0.44883l-0.06592,0.15894c-0.35449,-0.93633 0.33691,-2.50371 -0.1582,-3.38086c-0.01904,0.04248 -0.04248,0.0832 -0.05713,0.12729c-0.23145,0.69536 -0.18164,2.93145 0.14355,3.57217c0.64014,1.25991 2.40674,0.04395 3.4248,0.41147c-0.38818,-0.11807 -0.73975,-0.01626 -1.12646,0.05684c0.06885,-0.01084 0.13623,-0.02388 0.20508,-0.03237c0.47607,-0.05889 0.74854,-0.04512 1.13525,0.24551c0.10107,0.33311 0.15674,0.68086 0.43506,0.91201c0.09814,-0.2499 0.14941,-0.41733 0.13477,-0.6873c-0.00293,-0.05273 -0.00732,-0.10532 -0.01172,-0.15791l0.11719,0.12334c0.5376,-0.32593 0.90527,-0.53657 1.21582,-1.09277z" fill-opacity="0.00784" fill="#ffffff"/><path d="M148.8252,127.91353c0.2959,-0.17842 0.60791,-0.49175 0.96973,-0.36152c1.63037,0.58579 4.24219,2.39766 5.81982,3.3145c4.98633,2.89819 9.94922,5.94375 15.03662,8.65488c-0.01904,4.1335 -0.18311,8.34434 0.01318,12.46934c-0.08789,3.88184 -0.12891,7.85596 0,11.73779c-2.37305,1.35352 -20.67187,12.15527 -21.20361,11.99268c-0.33105,-0.10107 -0.59912,-0.28125 -0.88916,-0.46289c-1.14258,-0.9375 -18.80156,-10.96729 -19.34063,-11.0332c-0.22969,-0.2168 -0.41191,-0.39551 -0.47886,-0.71631c-0.45146,-2.16064 -0.00513,-8.87256 -0.10737,-11.55615c0.1957,-4.09863 0.09697,-8.34053 0.01787,-12.44663c6.81416,-3.65186 13.46265,-7.72588 20.1624,-11.59248zM137.2188,144.84419l-0.02637,14.53374c1.7395,1.03857 11.58296,7.04297 12.80024,7.21143c4.07813,-2.50635 8.52832,-4.6084 12.40723,-7.41064c-0.27686,-4.70654 -0.09375,-9.55811 -0.05127,-14.27622c-1.78564,-1.07842 -11.62646,-7.07871 -12.7207,-7.22549c-4.12251,2.41245 -8.25908,4.80161 -12.40913,7.16719z" fill="#fefdfd"/><path d="M149.62793,137.677c1.09424,0.14678 10.93506,6.14707 12.7207,7.22549c-0.04248,4.71812 -0.22559,9.56968 0.05127,14.27622c-3.87891,2.80225 -8.3291,4.9043 -12.40723,7.41064c-1.21729,-0.16846 -11.06074,-6.17285 -12.80024,-7.21143l0.02637,-14.53374c4.15005,-2.36558 8.28662,-4.75474 12.40913,-7.16719zM154.37695,155.77588c0.65186,-0.21387 1.27148,-0.40283 1.86035,-0.76611c0.66064,-0.88037 1.14404,-1.88818 0.9668,-3.02197c-0.11133,-0.71924 -0.53174,-1.3916 -1.15283,-1.77979c-0.37939,-0.2373 -0.89355,-0.34424 -1.33008,-0.42334c-0.26221,1.98193 -0.28125,3.99609 -0.34424,5.99121zM148.48389,156.80566c0.41748,-0.17139 0.7793,-0.49658 1.21289,-0.64893c0.35889,-0.12744 0.50977,-0.11719 0.84082,0.0542c-0.09082,0.17578 -0.14209,0.2915 -0.18604,0.48779c1.45898,-0.54199 0.59473,-3.76904 1.17773,-4.78418c0.20654,0.78662 0.1626,1.59082 0.1626,2.39941c0.28564,-1.35645 0.13037,-3.03955 0.13916,-4.43262c-0.61963,0.15527 -1.19971,0.30615 -1.84131,0.33545c-0.23877,0.21387 -0.28857,0.26221 -0.33105,0.59912c-0.06592,0.52734 -0.11279,0.80127 -0.35449,1.2876l-0.11426,-0.00586c0.01465,-1.64648 0.07031,-3.33691 -0.0542,-4.979l-0.01318,-0.14502c-0.43652,2.9751 0.57129,7.13086 -0.63867,9.83203zM154.80469,157.51025c-0.95654,-0.09229 -1.98633,-0.03662 -2.94727,0.01172l0.28418,0.21826l-0.09229,0.05713c0.79688,0.50244 1.50293,0.38086 2.3877,0.19922c0.19043,-0.03809 0.36475,-0.09521 0.54932,-0.1582l-0.271,-0.15527z" fill-opacity="0.49804" fill="#feb7b7"/><path d="M152.1416,148.16602c2.03467,-0.38086 4.67725,-0.58887 6.45703,0.66797c0.86426,0.6123 1.40918,1.53662 1.56299,2.58252c0.19775,1.37695 -0.18896,2.77441 -1.06934,3.85107c-1.07812,1.33594 -2.62793,1.99805 -4.2876,2.24268c-0.95654,-0.09229 -1.98633,-0.03662 -2.94727,0.01172l-0.71631,-0.10693c-0.33398,-0.5376 0.43506,-2.16504 0.52734,-2.89893c0.00879,-0.06738 0.01465,-0.13477 0.02344,-0.20215c0.28564,-1.35645 0.13037,-3.03955 0.13916,-4.43262c-0.61963,0.15527 -1.19971,0.30615 -1.84131,0.33545c0.68408,-0.72656 1.37109,-1.42676 2.15186,-2.05078zM154.37695,155.77588c0.65186,-0.21387 1.27148,-0.40283 1.86035,-0.76611c0.66064,-0.88037 1.14404,-1.88818 0.9668,-3.02197c-0.11133,-0.71924 -0.53174,-1.3916 -1.15283,-1.77979c-0.37939,-0.2373 -0.89355,-0.34424 -1.33008,-0.42334c-0.26221,1.98193 -0.28125,3.99609 -0.34424,5.99121z" fill="#fe0000"/><path d="M154.72119,149.78467c0.43652,0.0791 0.95068,0.18604 1.33008,0.42334c0.62109,0.38818 1.0415,1.06055 1.15283,1.77979c0.17725,1.13379 -0.30615,2.1416 -0.9668,3.02197c-0.58887,0.36328 -1.2085,0.55225 -1.86035,0.76611c0.06299,-1.99512 0.08203,-4.00928 0.34424,-5.99121z" fill-opacity="0.53333" fill="#fea0a0"/><path d="M149.12256,146.97363c-0.43652,2.9751 0.57129,7.13086 -0.63867,9.83203c-0.54199,0.20215 -1.05176,0.56104 -1.55127,0.854c-1.11416,-1.67871 -2.24355,-3.26221 -3.00278,-5.1416c-0.04277,1.29932 -0.16963,2.59863 -0.27275,3.89502c-0.78955,0.29736 -1.56592,0.646 -2.34404,0.97412c0.06694,-1.70801 0.68936,-6.83643 0.42217,-8.21777c-0.04775,-0.24609 -0.12246,-0.49805 -0.18032,-0.74268c0.47036,-0.48193 1.40991,-0.8042 1.99863,-1.20557l0.15176,-0.10547c0.41733,0.80859 2.75962,5.34961 3.00176,5.59424c0.1875,-1.5791 0.00439,-3.35303 -0.03516,-4.95264c0.82764,-0.22852 1.6377,-0.51123 2.45068,-0.78369z" fill="#fe0000"/><path d="M149.12256,146.97363l0.01318,0.14502c0.12451,1.64209 0.06885,3.33252 0.0542,4.979l0.11426,0.00586c0.2417,-0.48633 0.28857,-0.76025 0.35449,-1.2876c0.04248,-0.33691 0.09229,-0.38525 0.33105,-0.59912c0.6416,-0.0293 1.22168,-0.18018 1.84131,-0.33545c-0.00879,1.39307 0.14648,3.07617 -0.13916,4.43262c0,-0.80859 0.04395,-1.61279 -0.1626,-2.39941c-0.58301,1.01514 0.28125,4.24219 -1.17773,4.78418c0.04395,-0.19629 0.09521,-0.31201 0.18604,-0.48779c-0.33105,-0.17139 -0.48193,-0.18164 -0.84082,-0.0542c-0.43359,0.15234 -0.79541,0.47754 -1.21289,0.64893c1.20996,-2.70117 0.20215,-6.85693 0.63867,-9.83203z" fill-opacity="0.56078" fill="#fea0a0"/><path d="M151.85742,157.52197c0.96094,-0.04834 1.99072,-0.104 2.94727,-0.01172l-0.08936,0.17285l0.271,0.15527c-0.18457,0.06299 -0.35889,0.12012 -0.54932,0.1582c-0.88477,0.18164 -1.59082,0.30322 -2.3877,-0.19922l0.09229,-0.05713z" fill-opacity="0.55686" fill="#fea0a0"/><path d="M220.64502,134.64038c1.02539,-2.00713 2.2998,-3.54082 4.54102,-4.22607c1.86035,-0.56851 3.89941,-0.43579 5.60596,0.5313c1.64502,0.94878 2.83887,2.52056 3.31055,4.36011c0.49658,1.93301 0.17432,3.9854 -0.89355,5.67202c-1.02979,1.604 -2.61182,2.66587 -4.47949,3.03267c-1.81787,0.35728 -3.74268,0.02988 -5.28223,-1.01646c-1.09863,-0.7459 -1.90283,-1.76909 -2.59131,-2.88838c-5.18115,-0.08569 -10.4502,-0.17593 -15.62695,0.02476l-9.05859,9.04497c-1.61279,1.61426 -3.19336,3.34717 -4.9043,4.85303c-1.97314,-0.40869 -7.229,-0.10107 -9.58008,-0.08203c-2.15039,-0.09082 -4.66846,-0.2373 -6.78662,0.10693c-0.44531,-0.84229 -0.1333,-3.79248 -0.26367,-4.96436l9.49072,0.03662c1.6377,0.00732 3.39844,0.13623 5.01855,-0.09082c2.97656,-2.81323 5.8374,-5.76592 8.73486,-8.66133c1.81055,-1.80937 4.00635,-3.65903 5.47998,-5.74761zM228.00439,139.7792c0.93018,-0.24346 1.65381,-0.97075 1.89404,-1.90078c0.24023,-0.93003 -0.04248,-1.91719 -0.73828,-2.57959c-0.69434,-0.6624 -1.69482,-0.89634 -2.61182,-0.61143c-1.37549,0.42715 -2.15625,1.87397 -1.76074,3.25811c0.39551,1.38398 1.8252,2.19844 3.2168,1.83369z" fill="#fefdfd"/><path d="M79.61118,139.84512c-0.61714,1.41401 -1.4168,2.67891 -2.68345,3.59854c-1.46616,1.06465 -3.51548,1.45928 -5.29409,1.16851c-1.89565,-0.31011 -3.52192,-1.3396 -4.60005,-2.93262c-1.11079,-1.62993 -1.49487,-3.6479 -1.0604,-5.57183c0.43066,-1.88555 1.62275,-3.59692 3.29883,-4.58101c1.66641,-0.97837 3.65859,-1.15986 5.5021,-0.63296c2.25,0.64307 3.54492,2.05884 4.63799,4.03843c5.79536,0.00234 11.60493,0.09155 17.39839,-0.04204c4.1666,4.33374 8.43135,8.66353 12.77124,12.82324c0.65376,0.62549 1.04297,1.1499 2.00566,1.13086c2.09224,0.21533 13.58086,-0.20068 14.34331,0.22119l0.12627,0.63281c-0.33428,1.37402 -0.1541,3.01172 -0.09888,4.41943l-11.00171,-0.03516c-1.71519,0 -3.79717,-0.19629 -5.47061,0.13916c-1.29741,-1.93066 -3.48809,-3.71338 -5.14028,-5.36719c-3.00688,-3.00952 -5.96807,-6.09727 -9.07207,-9.00557c-5.21309,-0.10283 -10.44683,-0.00469 -15.66226,-0.00381zM73.31733,140.06279c0.94233,-0.22061 1.68838,-0.93926 1.94414,-1.87266c0.25562,-0.93354 -0.02021,-1.93198 -0.71865,-2.60186c-0.69844,-0.67002 -1.70757,-0.90396 -2.62954,-0.60967c-1.35,0.43096 -2.11875,1.85098 -1.74155,3.21694c0.37734,1.36597 1.76587,2.19023 3.14561,1.86724z" fill="#fefdfd"/><path d="M182.76123,103.6396c-1.97168,-1.09819 -3.52441,-2.37979 -4.16895,-4.64517c-0.50391,-1.77407 -0.3501,-3.7021 0.56836,-5.31841c0.92578,-1.62817 2.55176,-2.80254 4.35645,-3.26763c1.81787,-0.46743 3.74707,-0.18164 5.35254,0.79233c1.60547,0.94688 2.73926,2.52524 3.12305,4.34941c0.38232,1.78447 0.0791,3.71777 -0.92285,5.25176c-0.89502,1.3689 -2.2002,2.31182 -3.71045,2.89673c0.0791,6.32168 -0.1333,12.66357 0.06592,18.98042c-2.10937,1.5728 -3.95654,3.73081 -5.81543,5.60112c-1.37549,1.38457 -2.89014,2.74482 -4.15869,4.21787c-1.24951,0.79585 -3.36621,3.29019 -4.53809,4.45518c-1.23633,-1.13599 -2.42139,-2.32588 -3.55371,-3.56602c1.35791,-1.00386 3.07031,-2.57959 4.07813,-3.94746l9.33545,-9.27305c-0.08496,-5.50693 0.00146,-11.01943 -0.01172,-16.5271zM185.52539,99.9854c0.97266,-0.12217 1.80176,-0.76523 2.16064,-1.67725c0.36035,-0.91201 0.19482,-1.94751 -0.43359,-2.70103c-0.62695,-0.75337 -1.61572,-1.10449 -2.57666,-0.91582c-1.41943,0.27817 -2.36279,1.63052 -2.13281,3.05786c0.22852,1.42734 1.54834,2.41641 2.98242,2.23623z" fill="#fefdfd"/><path d="M112.44331,111.14971c-1.64355,-0.75366 -3.08979,-1.73071 -4.04077,-3.31919c-0.95947,-1.60283 -1.17686,-3.64072 -0.71602,-5.43867c0.45938,-1.82578 1.6418,-3.38613 3.27539,-4.32231c1.73218,-0.98877 3.77256,-1.26533 5.68945,-0.69272c1.81392,0.5417 3.39888,1.7606 4.2917,3.44268c0.90366,1.70288 1.08574,3.84771 0.47944,5.67935c-0.74458,2.24941 -2.38506,3.54229 -4.42075,4.55229c0.00981,0.89268 0.02622,1.78521 0.04922,2.67744c-0.04321,2.20869 -0.05186,4.41797 -0.02593,6.62695c2.81484,2.94536 5.74102,6.01685 8.76167,8.74775c1.21318,1.48857 2.75405,2.82773 4.12178,4.18184c-1.07344,1.09028 -2.20972,2.15757 -3.19072,3.33179c-1.02275,-1.25303 -5.77456,-6.30146 -6.94819,-7.0355c-2.25688,-2.56509 -4.86665,-4.92642 -7.28892,-7.34004c-0.30571,-3.60762 -0.15454,-7.46689 -0.03735,-11.09165zM115.35366,107.02954c1.39336,-0.36519 2.24004,-1.77598 1.90679,-3.17725c-0.33325,-1.40127 -1.72441,-2.28003 -3.13301,-1.97886c-0.94014,0.20098 -1.69775,0.89531 -1.97974,1.8145c-0.28213,0.91904 -0.04438,1.9188 0.62124,2.6127c0.66562,0.69375 1.65469,0.97266 2.58472,0.72891z" fill="#fefdfd"/><path d="M147.65039,104.88018c-1.4332,-0.6791 -2.73179,-1.71431 -3.53716,-3.09668c-0.95068,-1.63184 -1.14595,-3.55254 -0.63721,-5.36367c0.50449,-1.79546 1.67988,-3.28975 3.34526,-4.14375c1.76514,-0.90352 3.82764,-1.03198 5.69238,-0.35493c1.70361,0.62271 3.1582,1.93169 3.89355,3.59736c0.74414,1.68354 0.76172,3.74604 0.06885,5.45332c-0.76611,1.88584 -2.26172,3.12363 -4.09131,3.90425c-0.25342,2.38931 -0.07471,4.95146 -0.06885,7.36362c0.00879,3.59941 -0.07764,7.22944 0.05273,10.8252c-1.06641,-0.00044 -3.82471,0.32798 -4.71387,-0.18003l-0.11719,-0.44883c0.31787,-1.79385 0.10986,-3.94849 0.11133,-5.78174zM150.65918,101.07363c1.39453,-0.41455 2.18994,-1.87837 1.78125,-3.27393c-0.40869,-1.39556 -1.86914,-2.19756 -3.2666,-1.7937c-1.40479,0.40605 -2.21191,1.87646 -1.80176,3.27979c0.41162,1.40317 1.88525,2.20488 3.28711,1.78784z" fill="#fefdfd"/><path d="M148.21436,127.74097l0.12891,-0.10532c0.39844,-0.33516 0.62695,-0.59736 0.88037,-1.05161c0.54639,-0.23965 1.23193,-0.02373 1.80762,0.05479l0.05859,-0.25737l0.16406,-0.14766l0.11133,0.14736c0.19482,0.25122 0.42334,0.65259 0.76172,0.70254c0.87012,0.12832 2.06104,-0.12612 2.80664,0.35684c0.07178,0.04658 0.14648,0.08965 0.21826,0.13594c0.0542,0.03472 0.1084,0.07134 0.16113,0.10693c0.26367,-0.10239 0.39697,-0.17842 0.5874,-0.38804c0.375,0.14282 0.55811,0.43799 0.79688,0.74282c1.33447,0.34395 2.54883,0.69023 3.82617,1.22798c1.51172,0.63545 7.63037,4.03242 8.58105,4.0166c0,-0.43257 -0.07178,-0.53994 0.23145,-0.86616c0.37354,0.01143 0.30615,0.01846 0.56396,0.23467c1.04297,-1.01177 2.1416,-2.41187 3.32959,-3.2228l0.20801,0.01128c-1.00781,1.36787 -2.72021,2.9436 -4.07812,3.94746c1.13232,1.24014 2.31738,2.43003 3.55371,3.56602c1.17188,-1.16499 3.28857,-3.65933 4.53809,-4.45518c1.07666,-0.23188 1.53223,-1.62554 2.50195,-1.93301l0.01025,0.13989c-1.85742,1.66992 -3.43506,3.79658 -5.42578,5.29556c-0.48926,0.36885 -0.55225,0.88799 -0.62549,1.4647c-0.104,0.82163 -0.1626,1.70229 -0.0835,2.52788c0.18018,1.88452 0.78369,3.66431 1.0752,5.51792c0.09229,0.57671 0.01465,1.17847 0.12598,1.74829c0.04834,0.24023 0.15674,0.52441 0.30762,0.71777c0.31494,0.40869 0.66357,0.57715 1.16748,0.60645c1.94238,0.11572 3.96826,-0.37207 5.89453,0.03223c-1.20557,0.07617 -2.40967,0.17139 -3.6123,0.28564c2.90771,0.01611 7.6582,-0.21973 10.35791,0.1333c-1.62012,0.22705 -3.38086,0.09814 -5.01855,0.09082l-9.49072,-0.03662c0.13037,1.17188 -0.18164,4.12207 0.26367,4.96436c0.71338,0.39551 1.61572,0.10986 2.42578,0.34863c-2.34521,0.13623 -1.91748,-0.14502 -3.82471,1.22461c0.03516,0.07471 0.07178,0.15088 0.10547,0.22705c0.12305,0.28271 0.16553,0.51709 0.09229,0.82617c-0.28564,1.21436 -1.38428,4.3916 -1.89258,5.53418c-0.19189,0.43066 -0.41016,0.68848 -0.76465,1.00049l-0.10547,-4.33154c0.15967,-0.85693 0.14795,-6.89941 -0.07764,-7.62012l-0.19336,0.72803c-0.19629,-4.125 -0.03223,-8.33584 -0.01318,-12.46934c-5.0874,-2.71113 -10.05029,-5.75669 -15.03662,-8.65488c-1.57764,-0.91685 -4.18945,-2.72871 -5.81982,-3.3145c-0.36182,-0.13022 -0.67383,0.18311 -0.96973,0.36152z" fill="url(#color-1)"/><path d="M121.44521,123.99536c0.06035,0.03867 0.12129,0.07646 0.18105,0.11616c2.07598,1.3812 4.77129,5.06528 6.98687,6.85195c0.04688,0.03794 0.09243,0.07749 0.14004,0.1144c0.90469,0.69961 2.76123,1.06567 3.88242,1.17173c1.49209,-0.61685 2.90054,-1.4877 4.34634,-2.20532c3.24888,-1.61265 7.1209,-2.86699 10.73584,-3.03765l0.36035,0.31538c-0.03076,0.32754 -0.07471,0.29268 -0.2959,0.51006c0.02783,-0.01245 0.0542,-0.03003 0.0835,-0.0375c0.03809,-0.00967 0.30469,-0.04717 0.34863,-0.05361l0.61084,0.17256c-6.69976,3.8666 -13.34824,7.94063 -20.1624,11.59248c0.0791,4.1061 0.17783,8.348 -0.01787,12.44663c-0.99551,-1.68457 -1.24453,-0.32812 -2.39326,-0.9082c-0.02417,-0.38086 -0.0356,-0.76758 -0.13535,-1.13818c-0.01875,-0.06885 -0.03955,-0.13916 -0.05933,-0.20801l-0.12627,-0.63281c-0.76245,-0.42187 -12.25107,-0.00586 -14.34331,-0.22119c3.17197,-0.28857 6.56206,-0.06738 9.76318,-0.0791c-1.37432,-0.09229 -2.89614,-0.08496 -4.22695,-0.43359c1.93037,-0.31787 5.40469,0.5127 7.01748,0.14355l-0.3082,-0.25635l0.05098,-0.3208c0.27041,-0.22559 0.47095,-0.40869 0.67661,-0.69873c0.08174,-2.65723 1.54907,-5.50884 1.44375,-7.94575c-0.03779,-0.87656 -1.30723,-1.72866 -1.39409,-2.5853c-0.0293,-0.28828 0.18296,-0.94497 0.24229,-1.25127c-0.30894,-0.84082 -6.76479,-6.7248 -7.86489,-7.75503l0.03677,-0.21094l-0.05479,-0.03398l-0.1541,0.05552l0.01406,-0.13579l-0.0791,0.05112l-0.03369,-0.07749l0.18647,0.06211l-0.03091,0.16245c0.69624,-0.21841 2.0083,1.88965 2.89731,2.04653c1.17363,0.73403 5.92544,5.78247 6.94819,7.0355c0.98101,-1.17422 2.11729,-2.2415 3.19072,-3.33179c-1.36772,-1.3541 -2.90859,-2.69326 -4.12178,-4.18184l0.06709,-0.09492c-0.69653,-1.53135 -3.81328,-3.36768 -4.40859,-5.01299z" fill="url(#color-2)"/><path d="M129.23115,164.2251c0.53906,0.06592 18.19805,10.0957 19.34063,11.0332l0.05859,0.54492c-0.01465,-0.00439 -0.0293,-0.01172 -0.04541,-0.01318c-0.22266,-0.02783 -0.41602,-0.03662 -0.62842,-0.12305c-0.45557,-0.18457 -0.79541,-0.25195 -1.28613,-0.28711c-3.49292,-0.25342 -11.60698,-5.2002 -14.43369,-7.56445c-1.00356,-0.83936 -2.21162,-2.521 -2.98799,-3.07764c-0.27993,-0.20068 -0.50156,-0.42041 -0.74253,-0.66357z" fill="url(#color-3)"/><path d="M170.66455,151.99072l0.19336,-0.72803c0.22559,0.7207 0.2373,6.76318 0.07764,7.62012c-0.18311,1.54102 -0.39697,3.37646 0.06885,4.87354c-0.36035,0.64893 -0.93018,0.93164 -1.43701,1.43848c-3.4043,3.4043 -6.35596,5.48877 -10.64795,7.61865c-0.71631,0.35449 -1.6582,0.94043 -2.43311,1.10449c-0.67676,0.14502 -1.26562,-0.19189 -1.92334,0.18311c-0.24756,0.14209 -0.50098,0.27686 -0.74854,0.41895c-0.2124,-0.14502 -0.10986,-0.04687 -0.27979,-0.3208c-1.22754,0.49512 -3.23877,2.46387 -4.55859,1.95703l-0.3457,-0.35303l-0.05859,-0.54492c0.29004,0.18164 0.55811,0.36182 0.88916,0.46289c0.53174,0.1626 18.83057,-10.63916 21.20361,-11.99268c-0.12891,-3.88184 -0.08789,-7.85596 0,-11.73779z" fill-opacity="0.28628" fill="#fde4e2"/><path d="M126.05698,149.69824c0.01978,0.06885 0.04058,0.13916 0.05933,0.20801c0.09976,0.37061 0.11118,0.75732 0.13535,1.13818c1.14873,0.58008 1.39775,-0.77637 2.39326,0.9082c0.10225,2.68359 -0.34409,9.39551 0.10737,11.55615c0.06694,0.3208 0.24917,0.49951 0.47886,0.71631l-0.72495,-0.15088c-0.22017,-0.74707 -0.26646,-1.42236 -0.57041,-2.17383l-0.00103,0.19336c-0.57773,-1.41064 -0.80977,-2.96338 -1.33037,-4.40186c-0.18618,-0.51562 -0.69756,-1.12354 -0.7106,-1.66553c-0.00205,-0.08496 0.01714,-0.16992 0.02563,-0.25342c-0.86968,-0.34277 -1.8167,-0.95947 -2.70747,-1.16602c-0.87715,-0.20361 -2.0833,-0.0498 -2.99941,-0.05127c-2.30347,0 -4.60825,0.02051 -6.91025,-0.07031l3.45923,-0.18018c-2.18672,0.00586 -4.87104,0.26367 -6.99785,-0.03955c-0.09272,-0.01318 -0.18516,-0.0293 -0.27788,-0.04395c1.67344,-0.33545 3.75542,-0.13916 5.47061,-0.13916l11.00171,0.03516c-0.05522,-1.40771 -0.2354,-3.04541 0.09888,-4.41943z" fill="url(#color-4)"/><path d="M152.38477,104.87607c0.46729,2.59043 -0.375,5.49917 0.19189,8.05327c0.07617,-0.76816 0.07031,-1.68486 0.31641,-2.41362c0.24609,3.04834 -0.00146,6.25049 -0.04102,9.31128c-0.01172,0.95757 0.09082,1.90811 0.07764,2.86538c-0.31055,0.5562 -0.67822,0.76685 -1.21582,1.09277l-0.11719,-0.12334c0.00439,0.05259 0.00879,0.10518 0.01172,0.15791c0.01465,0.26997 -0.03662,0.4374 -0.13477,0.6873c-0.27832,-0.23115 -0.33398,-0.57891 -0.43506,-0.91201c-0.38672,-0.29062 -0.65918,-0.30439 -1.13525,-0.24551c-0.06885,0.0085 -0.13623,0.02153 -0.20508,0.03237c0.38672,-0.0731 0.73828,-0.1749 1.12646,-0.05684c-1.01807,-0.36753 -2.78467,0.84844 -3.4248,-0.41147c-0.3252,-0.64072 -0.375,-2.87681 -0.14355,-3.57217c0.01465,-0.04409 0.03809,-0.08481 0.05713,-0.12729c0.49512,0.87715 -0.19629,2.44453 0.1582,3.38086l0.06592,-0.15894l0.11719,0.44883c0.88916,0.50801 3.64746,0.17959 4.71387,0.18003c-0.13037,-3.59575 -0.04395,-7.22578 -0.05273,-10.8252c-0.00586,-2.41216 -0.18457,-4.97432 0.06885,-7.36362z" fill-opacity="0.11765" fill="#fefdfd"/><path d="M117.05098,113.72856c0.02505,0.09287 0.05186,0.1853 0.07544,0.27861c0.25547,1.01602 0.09141,2.23667 0.16875,3.28828l0.0917,-1.32393c0.0728,1.07417 -0.08027,2.48745 0.16948,3.50273c0.35435,1.44009 3.04043,3.12085 3.88887,4.52109c0.59531,1.64531 3.71206,3.48164 4.40859,5.01299l-0.06709,0.09492c-3.02065,-2.73091 -5.94683,-5.80239 -8.76167,-8.74775c-0.02593,-2.20898 -0.01729,-4.41826 0.02593,-6.62695z" fill-opacity="0.02353" fill="#fefdfd"/><path d="M181.68604,153.94629c2.35107,-0.01904 7.60693,-0.32666 9.58008,0.08203c-2.94287,0.26953 -5.896,0.39258 -8.85059,0.36621c-0.56836,-0.09961 -1.15869,-0.14062 -1.73291,-0.21387c0.31348,-0.13916 0.6665,-0.17285 1.00342,-0.23437z" fill-opacity="0.08235" fill="#fefdfd"/><path d="M174.89941,154.05322c2.11816,-0.34424 4.63623,-0.19775 6.78662,-0.10693c-0.33691,0.06152 -0.68994,0.09521 -1.00342,0.23438c0.57422,0.07324 1.16455,0.11426 1.73291,0.21387c-1.69629,0.02344 -3.39404,0.02637 -5.09033,0.00732c-0.81006,-0.23877 -1.7124,0.04688 -2.42578,-0.34863z" fill-opacity="0.22353" fill="#fefdfd"/><path d="M171.00439,163.75635c-0.46582,-1.49707 -0.25195,-3.33252 -0.06885,-4.87354l0.10547,4.33154z" fill-opacity="0.23922" fill="#fde4e2"/><path d="M151.92041,180.49658c0.35449,0.87012 0.02197,27.33838 0.12158,31.05176c-0.42041,4.69482 0.19775,9.52002 -0.0835,14.23242c1.48242,-1.59814 7.70947,-7.29053 8.33057,-8.42285c5.81689,-5.37891 11.34668,-11.17236 16.97021,-16.76221l5.65283,-5.62939c1.37109,-1.36816 2.95313,-2.71875 3.99756,-4.35645c4.60693,0.3457 9.5918,0.07617 14.23682,0.07471c0.94043,-1.98779 2.06836,-3.6958 4.24072,-4.48096c1.76367,-0.63867 3.60205,-0.58008 5.29102,0.25342c1.6377,0.80713 2.98828,2.31885 3.5376,4.06787c0.52588,1.68018 0.35742,3.50244 -0.46582,5.05957c-0.86426,1.65381 -2.36719,2.88281 -4.16162,3.3999c-1.72705,0.49365 -3.68701,0.27393 -5.23535,-0.64893c-1.48242,-0.88477 -2.28369,-2.12109 -3.03662,-3.60937c-4.08398,-0.00146 -8.20312,-0.11279 -12.28271,0.03516c-5.08447,4.91016 -10.04297,9.96094 -15.05127,14.94873c-2.85205,2.84033 -5.92529,5.61182 -8.61621,8.59424c-0.19775,4.54395 -0.07764,9.13184 -0.07617,13.68164l-0.00439,23.12549v29.06543c0,5.26611 -0.10547,10.56006 0.03662,15.82324h-4.20996c-0.1626,-8.40674 -0.00879,-16.84717 -0.00732,-25.2583l-0.00879,-52.25098c-1.99219,2.04785 -4.06641,4.02539 -6.09521,6.03662c-0.99756,0.9873 -2.14746,1.98193 -2.9751,3.11572c-0.15088,8.00244 -0.03076,16.02979 -0.03076,24.03516l0.01904,44.32178h-4.53516c-0.18311,-8.87549 -0.01025,-17.79053 -0.01025,-26.67041l-0.00146,-42.81738c-2.47837,-2.90332 -6.11118,-6.16553 -8.87285,-8.9165c-0.12642,6.87158 0.0145,13.75488 -0.01025,20.62646l-0.00381,57.77783h-4.21143c-0.11997,-9.36768 -0.01362,-18.75146 -0.01626,-28.11914l0.00483,-54.39697c-2.56187,-3.00879 -5.69634,-5.75537 -8.50327,-8.55322c-4.75239,-4.73877 -9.43945,-9.57715 -14.29644,-14.20605c-6.68643,-0.23437 -13.45562,-0.0249 -20.15039,-0.02051l-0.07397,0.20215c-0.77109,2.0625 -2.06426,3.70752 -4.13218,4.60986c-1.82373,0.78369 -3.88623,0.80273 -5.72417,0.05273c-1.73994,-0.71338 -3.20757,-2.06689 -3.94731,-3.80566c-0.80508,-1.89258 -0.90132,-3.98584 -0.08936,-5.89893c0.78823,-1.84131 2.29014,-3.28564 4.16191,-4.00049c1.9106,-0.71484 4.02861,-0.62988 5.87622,0.23438c1.92876,0.92285 3.11045,2.47998 3.84272,4.43994c7.31265,-0.00293 14.64683,-0.11865 21.95684,0.03076c9.05068,8.7627 17.7438,17.90332 26.83887,26.62207c0.96416,1.46338 5.76885,5.77734 7.35469,7.43408c-0.09082,-3.57715 0,-7.18066 0.00439,-10.76221l0.01758,-20.21631l0.01611,-7.88672c0,-1.56299 0.09082,-3.21094 -0.12012,-4.75928c-0.01758,-0.26514 -0.0498,-0.13477 0.1333,-0.37646c1.40186,-0.18311 2.83154,0.0293 4.24219,-0.11133c0.05127,-0.00439 0.10254,-0.01025 0.15527,-0.01611zM208.08252,195.42334c1.43848,-0.08203 2.5415,-1.30811 2.47266,-2.74805c-0.06885,-1.43994 -1.28613,-2.55469 -2.72607,-2.49756c-1.45752,0.05713 -2.58984,1.29199 -2.51953,2.74951c0.07031,1.45752 1.31543,2.57813 2.77295,2.49609zM84.96973,195.19629c1.29507,-0.36182 2.07144,-1.68311 1.75532,-2.98975c-0.31611,-1.30664 -1.61074,-2.12842 -2.92749,-1.85596c-0.89268,0.18311 -1.61396,0.83936 -1.88115,1.71094c-0.26733,0.87158 -0.03809,1.81934 0.5978,2.47119c0.63604,0.65332 1.57749,0.90674 2.45552,0.66357z" fill="#fefdfd"/><path d="M161.09619,222.49072l0.00879,52.25098c-0.00146,8.41113 -0.15527,16.85156 0.00732,25.2583h-0.99902c-1.05176,-0.16406 -3.37793,-0.54346 -4.29785,0h-3.80127l-0.01904,-44.32178c0,-8.00537 -0.12012,-16.03271 0.03076,-24.03516c0.82764,-1.13379 1.97754,-2.12842 2.9751,-3.11572c2.02881,-2.01123 4.10303,-3.98877 6.09521,-6.03662z" fill="url(#color-5)"/><path d="M138.59443,221.5957c2.76167,2.75098 6.39448,6.01318 8.87285,8.9165l0.00146,42.81738c0,8.87988 -0.17285,17.79492 0.01025,26.67041h-8.89863l0.00381,-57.77783c0.02476,-6.87158 -0.11616,-13.75488 0.01025,-20.62646z" fill="url(#color-6)"/><path d="M147.38965,181.00049c0.21094,1.54834 0.12012,3.19629 0.12012,4.75928l-0.01611,7.88672l-0.01758,20.21631c-0.00439,3.58154 -0.09521,7.18506 -0.00439,10.76221c-1.58584,-1.65674 -6.39053,-5.9707 -7.35469,-7.43408c-0.00337,-0.77783 -4.01733,-4.32568 -4.69556,-5.48145c0.51577,0.20361 1.10728,0.78662 1.45342,1.229c0.16802,0.21533 0.33574,0.41602 0.52192,0.6167c0.92607,0.99463 5.61387,5.98828 6.23379,6.30615c0.10884,0.05566 0.24434,0.00879 0.3665,0.01318l0.07427,0.26221c0.61641,-0.06738 0.98145,0.54346 1.63301,0.51416c0.50742,-0.26514 0.65127,-0.79834 0.99243,-1.25684c0.19336,0.29004 0.11279,0.79541 0.11719,1.14844l0.16406,-0.07764c0.09668,-0.87451 -0.12598,-1.74756 -0.13184,-2.625c-0.01318,-2.63379 0.05859,-5.27344 0.07617,-7.90869c0.00879,-1.53809 -0.1333,-3.18311 0.06445,-4.70508c0.18018,2.80518 0.22998,5.61182 0.28857,8.42139c0.27832,-7.81494 0.07178,-15.71484 0.06592,-23.54004c-0.00146,-2.9502 -0.14209,-5.9707 0.03516,-8.91357z" fill-opacity="0.3098" fill="#fefdfd"/><path d="M152.04199,211.54834c0.38379,-2.24414 0.22852,-4.55566 0.42627,-6.82031c0.06445,5.59424 -0.23291,11.27783 0.08936,16.85449l0.0498,-0.92725l0.28125,0.32813l0.271,-0.22266c0.13623,0.2666 0.20361,0.47607 0.25195,0.76758c0.27686,1.64063 0.82178,0.73975 -0.27393,2.48291l0.36328,-0.25049l-0.21094,-0.00586l0.19336,0.02344c1.98633,-1.99951 4.04297,-3.92871 6.00439,-5.95166c0.20068,-0.20654 0.51416,-0.44238 0.80127,-0.46875c-0.62109,1.13232 -6.84814,6.82471 -8.33057,8.42285c0.28125,-4.7124 -0.33691,-9.5376 0.0835,-14.23242z" fill-opacity="0.30196" fill="#fefdfd"/><path d="M151.92041,180.49658l0.07764,-0.22119l0.37061,-0.03516c0.07617,0.13037 0.18896,0.24756 0.22705,0.39404c0.21973,0.84814 -0.10547,4.00488 -0.10986,5.09033c-0.03223,6.32959 0.1333,12.67676 -0.01758,19.00342c-0.19775,2.26465 -0.04248,4.57617 -0.42627,6.82031c-0.09961,-3.71338 0.23291,-30.18164 -0.12158,-31.05176z" fill-opacity="0.03529" fill="#fefdfd"/><path d="M155.81543,300c0.91992,-0.54346 3.24609,-0.16406 4.29785,0z" fill-opacity="0.10588" fill="#fefdfd"/></g></svg></svg>